<svg xmlns="http://www.w3.org/2000/svg" viewBox="0 0 136 104" width="136" height="104">
  <g transform="translate(54.000000, 31.000000)" fill="#E8C9A0">
    <path d="M8.26227388,34.4901268 C3.65436435,29.0813759 0.535634794,22.4528771 1.05677633,15.0254539 C2.55833022,-6.37502057 32.3485306,-1.66718886 38.1433414,9.13393292 C43.9381521,19.9350547 43.249578,47.3329958 35.7603014,49.2634576 C32.7735882,50.033323 26.4110012,48.1474609 19.935372,44.244306 L24,73 L0,73 L8.26227388,34.4901268 Z"/>
  </g>
  <path d="M 36 30 Q 36 6, 72 4 Q 108 6, 108 30 L 108 44 L 36 44 Z" fill="#FFCD00"/>
  <ellipse cx="72" cy="30" rx="36" ry="3" fill="#1A1A1A" opacity="0.18"/>
  <rect x="36" y="40" width="72" height="11" fill="#1A1A1A"/>
  <rect x="38" y="42" width="68" height="2.5" fill="#3A3A3A"/>
  <rect x="36" y="49" width="72" height="3" fill="#1A1A1A"/>
  <text x="72" y="22" text-anchor="middle" font-family="-apple-system, Helvetica, Arial" font-size="10" font-weight="900" fill="#1A1A1A" letter-spacing="-0.5">noon</text>
  <rect x="36" y="42" width="3" height="9" fill="#E94679"/>
  <rect x="105" y="42" width="3" height="9" fill="#E94679"/>
  <path d="M 50 70 Q 60 80, 72 80 Q 84 80, 94 70" stroke="#1A1A1A" stroke-width="1.8" fill="none"/>
</svg>
