<svg xmlns="http://www.w3.org/2000/svg" viewBox="0 0 136 104" width="136" height="104">
  <path d="M 30 24 Q 68 4, 106 24 L 116 104 L 20 104 Z" fill="#FFFFFF"/>
  <path d="M 30 24 Q 68 4, 106 24 L 110 50 Q 100 42, 88 42 L 48 42 Q 36 42, 26 50 Z" fill="#F0F0F0"/>
  <g transform="translate(54.000000, 31.000000)" fill="#B28B67">
    <path d="M8.26227388,34.4901268 C3.65436435,29.0813759 0.535634794,22.4528771 1.05677633,15.0254539 C2.55833022,-6.37502057 32.3485306,-1.66718886 38.1433414,9.13393292 C43.9381521,19.9350547 43.249578,47.3329958 35.7603014,49.2634576 C32.7735882,50.033323 26.4110012,48.1474609 19.935372,44.244306 L24,73 L0,73 L8.26227388,34.4901268 Z"/>
  </g>
  <ellipse cx="68" cy="24" rx="34" ry="4.5" fill="#1A1A1A"/>
  <ellipse cx="68" cy="22.5" rx="33" ry="3" fill="#2C2C2C"/>
</svg>
