<svg xmlns="http://www.w3.org/2000/svg" viewBox="0 0 136 104" width="136" height="104">
  <g transform="translate(54.000000, 31.000000)" fill="#B28B67">
    <path d="M8.26227388,34.4901268 C3.65436435,29.0813759 0.535634794,22.4528771 1.05677633,15.0254539 C2.55833022,-6.37502057 32.3485306,-1.66718886 38.1433414,9.13393292 C43.9381521,19.9350547 43.249578,47.3329958 35.7603014,49.2634576 C32.7735882,50.033323 26.4110012,48.1474609 19.935372,44.244306 L24,73 L0,73 L8.26227388,34.4901268 Z"/>
  </g>
  <path d="M 56 26 Q 70 12, 96 24 Q 98 36, 92 38 L 57 38 Q 51 34, 56 26 Z" fill="#F5F1E8"/>
  <rect x="56" y="35" width="38" height="2.5" fill="#D4C9A8"/>
  <path d="M 70 18 Q 78 14, 88 18 Q 86 22, 76 22 Q 70 22, 70 18 Z" fill="#FFFFFF" opacity="0.6"/>
</svg>
