<svg xmlns="http://www.w3.org/2000/svg" viewBox="0 0 136 104" width="136" height="104">
  <path d="M 30 24 Q 68 4, 106 24 L 116 104 L 20 104 Z" fill="#A03030"/>
  <g opacity="0.55" stroke="#FFFFFF" stroke-width="0.8" fill="none">
    <line x1="32" y1="36" x2="108" y2="36"/>
    <line x1="30" y1="48" x2="110" y2="48"/>
    <line x1="28" y1="60" x2="112" y2="60"/>
    <line x1="26" y1="72" x2="114" y2="72"/>
    <line x1="25" y1="84" x2="115" y2="84"/>
    <line x1="24" y1="96" x2="116" y2="96"/>
    <line x1="40" y1="20" x2="40" y2="104"/>
    <line x1="54" y1="14" x2="54" y2="104"/>
    <line x1="68" y1="10" x2="68" y2="104"/>
    <line x1="82" y1="14" x2="82" y2="104"/>
    <line x1="96" y1="20" x2="96" y2="104"/>
  </g>
  <path d="M 30 24 Q 68 4, 106 24 L 110 48 Q 100 40, 88 40 L 48 40 Q 36 40, 26 48 Z" fill="#7A1F1F"/>
  <g transform="translate(54.000000, 31.000000)" fill="#B28B67">
    <path d="M8.26227388,34.4901268 C3.65436435,29.0813759 0.535634794,22.4528771 1.05677633,15.0254539 C2.55833022,-6.37502057 32.3485306,-1.66718886 38.1433414,9.13393292 C43.9381521,19.9350547 43.249578,47.3329958 35.7603014,49.2634576 C32.7735882,50.033323 26.4110012,48.1474609 19.935372,44.244306 L24,73 L0,73 L8.26227388,34.4901268 Z"/>
  </g>
  <ellipse cx="68" cy="24" rx="34" ry="4.5" fill="#1A1A1A"/>
</svg>
