<svg xmlns="http://www.w3.org/2000/svg" viewBox="0 0 400 400" width="400" height="400">
  <ellipse cx="200" cy="350" rx="155" ry="12" fill="#B27800" opacity="0.25"/>
  <circle cx="270" cy="325" r="22" fill="#B27800"/>
  <circle cx="270" cy="320" r="22" fill="#E8A500"/>
  <circle cx="270" cy="320" r="14" fill="#B27800"/>
  <circle cx="270" cy="318" r="5" fill="#FFE066"/>
  <circle cx="140" cy="325" r="22" fill="#B27800"/>
  <circle cx="140" cy="320" r="22" fill="#E8A500"/>
  <circle cx="140" cy="320" r="14" fill="#B27800"/>
  <circle cx="140" cy="318" r="5" fill="#FFE066"/>
  <path d="M 85 160 L 315 160 L 285 290 L 115 290 Z" fill="#E8A500"/>
  <path d="M 95 165 L 305 165 L 280 285 L 120 285 Z" fill="#FFCD00"/>
  <ellipse cx="200" cy="160" rx="115" ry="14" fill="#B27800"/>
  <ellipse cx="200" cy="155" rx="115" ry="14" fill="#E8A500"/>
  <ellipse cx="200" cy="150" rx="115" ry="14" fill="#FFE066"/>
  <rect x="118" y="170" width="3" height="115" rx="1.5" fill="#B27800"/>
  <rect x="153" y="170" width="3" height="115" rx="1.5" fill="#B27800"/>
  <rect x="188" y="170" width="3" height="115" rx="1.5" fill="#B27800"/>
  <rect x="223" y="170" width="3" height="115" rx="1.5" fill="#B27800"/>
  <rect x="258" y="170" width="3" height="115" rx="1.5" fill="#B27800"/>
  <rect x="293" y="170" width="3" height="115" rx="1.5" fill="#B27800"/>
  <rect x="100" y="200" width="200" height="3" rx="1.5" fill="#B27800"/>
  <rect x="105" y="235" width="190" height="3" rx="1.5" fill="#B27800"/>
  <rect x="110" y="270" width="180" height="3" rx="1.5" fill="#B27800"/>
  <rect x="305" y="95" width="14" height="68" rx="4" fill="#E8A500"/>
  <rect x="308" y="95" width="6" height="68" rx="2" fill="#FFCD00"/>
  <rect x="245" y="78" width="80" height="22" rx="11" fill="#E8A500"/>
  <rect x="248" y="80" width="74" height="14" rx="7" fill="#FFCD00"/>
  <rect x="252" y="84" width="40" height="3" rx="1.5" fill="#FFF2A8"/>
  <rect x="120" y="146" width="50" height="3" rx="1.5" fill="#FFF2A8"/>
  <circle cx="135" cy="315" r="2.5" fill="#FFF2A8"/>
  <circle cx="265" cy="315" r="2.5" fill="#FFF2A8"/>
</svg>
