<svg xmlns="http://www.w3.org/2000/svg" viewBox="0 0 400 400" width="400" height="400">
  <ellipse cx="200" cy="370" rx="100" ry="8" fill="#B71F4F" opacity="0.3"/>
  <path d="M 110 230 L 290 230 L 270 360 L 130 360 Z" fill="#E94679"/>
  <line x1="135" y1="240" x2="142" y2="355" stroke="#B71F4F" stroke-width="3"/>
  <line x1="170" y1="240" x2="172" y2="355" stroke="#B71F4F" stroke-width="3"/>
  <line x1="200" y1="240" x2="200" y2="358" stroke="#B71F4F" stroke-width="3"/>
  <line x1="230" y1="240" x2="228" y2="355" stroke="#B71F4F" stroke-width="3"/>
  <line x1="265" y1="240" x2="258" y2="355" stroke="#B71F4F" stroke-width="3"/>
  <rect x="105" y="220" width="190" height="20" fill="#B71F4F"/>
  <path d="M 120 230 Q 150 130 200 130 Q 250 130 280 230 Z" fill="#F47CA0"/>
  <path d="M 140 200 Q 165 150 200 150 Q 235 150 260 200 Q 240 215 200 215 Q 160 215 140 200 Z" fill="#FFB3C9"/>
  <path d="M 165 175 Q 180 145 200 145 Q 220 145 235 175 Q 220 188 200 188 Q 180 188 165 175 Z" fill="#FFE5EE"/>
  <circle cx="200" cy="135" r="14" fill="#B71F4F"/>
  <circle cx="195" cy="130" r="14" fill="#E94679"/>
  <ellipse cx="190" cy="125" rx="4" ry="6" fill="#FFFFFF"/>
  <path d="M 200 122 Q 215 100 230 95" stroke="#B71F4F" stroke-width="3" fill="none"/>
</svg>