<svg xmlns="http://www.w3.org/2000/svg" viewBox="0 0 400 400" width="400" height="400"><defs>
  <pattern id="hatch" patternUnits="userSpaceOnUse" width="8" height="8" patternTransform="rotate(-45)">
    <line x1="0" y1="0" x2="0" y2="8" stroke="#8B2A1F" stroke-width="2"/>
  </pattern>
</defs>
  <ellipse cx="200" cy="378" rx="180" ry="8" fill="#8B2A1F" opacity="0.2"/>
  <rect x="280" y="80" width="60" height="290" fill="#D54B33"/>
  <rect x="280" y="80" width="60" height="290" fill="url(#hatch)" opacity="0.5"/>
  <rect x="80" y="80" width="200" height="290" fill="#F47C5A"/>
  <rect x="80" y="80" width="260" height="20" fill="#FFB088"/>
  <rect x="80" y="170" width="260" height="8" fill="#D54B33"/>
  <rect x="80" y="250" width="260" height="8" fill="#D54B33"/>
  <rect x="100" y="115" width="50" height="40" fill="#FFFFFF"/>
  <rect x="160" y="115" width="50" height="40" fill="#FFFFFF"/>
  <rect x="220" y="115" width="50" height="40" fill="#FFFFFF"/>
  <polygon points="100,115 130,115 100,135" fill="#FFD4B8"/>
  <polygon points="160,115 190,115 160,135" fill="#FFD4B8"/>
  <polygon points="220,115 250,115 220,135" fill="#FFD4B8"/>
  <rect x="95" y="190" width="170" height="50" fill="#FFB088"/>
  <rect x="95" y="190" width="170" height="6" fill="#D54B33"/>
  <line x1="115" y1="200" x2="115" y2="240" stroke="#FFFFFF" stroke-width="3"/>
  <line x1="145" y1="200" x2="145" y2="240" stroke="#FFFFFF" stroke-width="3"/>
  <line x1="175" y1="200" x2="175" y2="240" stroke="#FFFFFF" stroke-width="3"/>
  <line x1="205" y1="200" x2="205" y2="240" stroke="#FFFFFF" stroke-width="3"/>
  <line x1="235" y1="200" x2="235" y2="240" stroke="#FFFFFF" stroke-width="3"/>
  <rect x="100" y="280" width="80" height="80" fill="#FFFFFF"/>
  <rect x="100" y="280" width="80" height="14" fill="#D54B33"/>
  <rect x="200" y="280" width="60" height="90" fill="#D54B33"/>
  <rect x="208" y="290" width="20" height="80" fill="#8B2A1F"/>
  <rect x="232" y="290" width="20" height="80" fill="#8B2A1F"/>
  <circle cx="120" cy="290" r="3" fill="#FFD4B8"/>
  <circle cx="140" cy="290" r="3" fill="#FFD4B8"/>
  <circle cx="160" cy="290" r="3" fill="#FFD4B8"/>
</svg>