<svg xmlns="http://www.w3.org/2000/svg" viewBox="0 0 400 400" width="400" height="400">
  <ellipse cx="200" cy="378" rx="60" ry="6" fill="#8C3D0F" opacity="0.25"/>
  <path d="M 190 370 Q 180 280 195 200 Q 200 150 205 100" stroke="#E0651A" stroke-width="22" fill="none" stroke-linecap="round"/>
  <path d="M 190 370 Q 180 280 195 200 Q 200 150 205 100" stroke="#FF8533" stroke-width="12" fill="none" stroke-linecap="round"/>
  <line x1="180" y1="320" x2="200" y2="320" stroke="#8C3D0F" stroke-width="3"/>
  <line x1="183" y1="270" x2="200" y2="270" stroke="#8C3D0F" stroke-width="3"/>
  <line x1="190" y1="220" x2="205" y2="220" stroke="#8C3D0F" stroke-width="3"/>
  <line x1="195" y1="170" x2="208" y2="170" stroke="#8C3D0F" stroke-width="3"/>
  <path d="M 200 100 Q 130 80 70 100 Q 100 110 200 110 Z" fill="#E0651A"/>
  <path d="M 200 100 Q 270 80 330 100 Q 300 110 200 110 Z" fill="#FF8533"/>
  <path d="M 200 100 Q 110 110 50 150 Q 90 145 195 115 Z" fill="#FF8533"/>
  <path d="M 200 100 Q 290 110 350 150 Q 310 145 205 115 Z" fill="#E0651A"/>
  <path d="M 200 100 Q 200 60 200 30 Q 215 70 215 110 Z" fill="#FFB870"/>
  <line x1="195" y1="105" x2="80" y2="100" stroke="#FFB870" stroke-width="2" opacity="0.7"/>
  <line x1="205" y1="105" x2="320" y2="100" stroke="#FFB870" stroke-width="2" opacity="0.7"/>
  <circle cx="195" cy="115" r="9" fill="#8C3D0F"/>
  <circle cx="210" cy="120" r="9" fill="#8C3D0F"/>
</svg>